<svg id="svg" version="1.1" xmlns="http://www.w3.org/2000/svg" xmlns:xlink="http://www.w3.org/1999/xlink" width="400" height="399.9369880277253" viewBox="0, 0, 400,399.9369880277253"><g id="svgg"><path id="path0" d="M156.077 57.375 C 156.175 57.683,156.641 59.685,156.727 60.167 C 156.768 60.396,156.881 60.921,156.977 61.333 C 157.074 61.746,157.345 62.908,157.580 63.917 C 157.815 64.925,158.081 66.012,158.171 66.333 C 158.262 66.654,158.402 67.217,158.484 67.583 C 158.623 68.213,159.148 70.194,160.074 73.583 C 162.224 81.458,165.820 91.721,168.657 98.083 C 168.821 98.450,169.170 99.237,169.434 99.833 C 170.122 101.386,172.825 106.810,173.254 107.500 C 173.454 107.821,173.857 108.533,174.151 109.083 C 174.444 109.633,174.755 110.196,174.841 110.333 C 174.928 110.471,175.430 111.271,175.958 112.111 C 180.653 119.592,184.706 123.892,191.198 128.278 C 193.477 129.818,194.057 130.222,194.167 130.342 C 194.213 130.392,194.775 130.788,195.417 131.221 C 196.058 131.655,196.958 132.277,197.417 132.603 C 197.875 132.930,199.000 133.729,199.917 134.379 C 202.893 136.490,203.916 137.245,203.972 137.374 C 204.003 137.443,204.134 137.500,204.264 137.500 C 204.394 137.500,204.500 137.563,204.500 137.640 C 204.500 137.717,204.669 137.868,204.875 137.977 C 205.353 138.228,206.139 138.803,207.086 139.595 C 207.496 139.937,208.166 140.450,208.575 140.734 C 209.524 141.392,212.620 143.776,215.250 145.873 C 216.523 146.888,219.777 149.540,220.417 150.084 C 220.875 150.474,222.300 151.678,223.583 152.759 C 225.449 154.332,230.290 158.593,230.667 158.994 C 230.713 159.043,231.648 159.908,232.746 160.917 C 235.265 163.231,241.842 169.794,244.251 172.397 C 248.694 177.198,249.380 177.509,250.539 175.250 C 251.573 173.234,251.401 166.104,250.187 160.667 C 250.095 160.254,249.983 159.729,249.939 159.500 C 249.579 157.639,248.527 153.558,248.102 152.375 C 247.962 151.985,247.876 151.667,247.911 151.667 C 247.945 151.667,247.452 150.148,246.815 148.292 C 246.177 146.435,245.632 144.842,245.603 144.750 C 245.574 144.658,245.494 144.433,245.426 144.250 C 245.358 144.067,245.222 143.692,245.125 143.417 C 245.027 143.142,244.822 142.617,244.670 142.250 C 244.517 141.883,244.274 141.283,244.129 140.917 C 243.411 139.103,241.407 134.521,240.693 133.062 C 240.250 132.157,239.598 130.820,239.245 130.092 C 238.674 128.913,237.096 125.955,235.506 123.083 C 235.201 122.533,234.548 121.408,234.053 120.583 C 233.559 119.758,233.087 118.971,233.004 118.833 C 232.048 117.236,228.514 111.842,227.162 109.917 C 223.576 104.808,219.456 99.805,216.063 96.436 C 212.288 92.689,208.756 89.471,206.250 87.493 C 205.517 86.915,204.879 86.397,204.833 86.343 C 204.722 86.211,203.859 85.515,203.167 85.000 C 202.860 84.771,202.027 84.120,201.316 83.554 C 200.605 82.987,199.874 82.444,199.691 82.346 C 199.509 82.249,199.260 82.069,199.138 81.948 C 198.838 81.648,191.752 76.666,190.824 76.102 C 189.549 75.328,189.436 75.255,189.234 75.072 C 189.125 74.974,188.498 74.561,187.840 74.155 C 187.182 73.749,186.469 73.304,186.257 73.167 C 185.330 72.566,182.004 70.573,181.167 70.116 C 180.662 69.841,180.063 69.488,179.833 69.332 C 179.392 69.031,175.799 67.006,172.583 65.244 C 170.257 63.971,169.858 63.763,166.167 61.916 C 158.377 58.017,155.931 56.916,156.077 57.375 M38.167 89.409 C 38.167 89.916,38.987 92.627,39.656 94.333 C 40.161 95.622,42.032 99.405,42.197 99.472 C 42.272 99.503,42.333 99.604,42.333 99.697 C 42.333 100.079,45.933 105.347,46.917 106.405 C 47.008 106.503,47.569 107.146,48.162 107.834 C 50.362 110.383,54.673 114.554,58.262 117.608 C 61.366 120.249,62.288 121.001,64.167 122.424 C 65.129 123.153,66.029 123.840,66.167 123.951 C 66.304 124.062,66.942 124.536,67.583 125.004 C 68.225 125.472,68.938 125.995,69.167 126.166 C 69.559 126.461,71.114 127.563,73.757 129.420 C 75.097 130.362,84.913 136.917,86.509 137.936 C 87.100 138.314,88.333 139.094,89.250 139.670 C 90.167 140.246,91.179 140.887,91.500 141.094 C 92.919 142.009,97.218 144.667,97.279 144.667 C 97.317 144.667,97.438 144.747,97.549 144.846 C 97.659 144.944,98.031 145.188,98.374 145.388 C 98.717 145.587,99.992 146.359,101.207 147.103 C 104.352 149.029,110.252 152.618,111.333 153.263 C 111.837 153.563,112.400 153.931,112.583 154.080 L 112.917 154.351 112.583 154.270 C 112.400 154.226,110.712 154.139,108.833 154.077 C 106.954 154.015,105.372 153.938,105.316 153.904 C 104.678 153.521,87.200 153.518,84.833 153.901 C 84.604 153.938,83.854 154.015,83.167 154.071 C 82.479 154.127,81.729 154.207,81.500 154.249 C 81.271 154.290,80.596 154.401,80.000 154.495 C 79.404 154.590,78.495 154.741,77.979 154.832 C 76.849 155.032,72.768 156.065,72.122 156.315 L 71.662 156.494 72.582 157.872 C 73.088 158.630,73.595 159.390,73.709 159.562 C 77.070 164.623,83.986 172.059,89.083 176.091 C 89.542 176.453,89.954 176.792,90.000 176.844 C 90.953 177.919,99.090 183.637,103.166 186.097 C 103.762 186.456,104.399 186.842,104.583 186.954 C 104.766 187.066,105.142 187.274,105.417 187.417 C 105.692 187.560,106.179 187.834,106.500 188.027 C 108.081 188.978,112.216 191.176,114.667 192.369 C 117.333 193.668,118.337 194.134,121.667 195.625 C 122.916 196.184,129.134 198.605,131.000 199.258 C 131.962 199.596,132.900 199.932,133.083 200.005 C 134.741 200.670,140.369 202.322,145.583 203.674 C 146.592 203.935,147.267 204.154,147.083 204.159 C 146.571 204.173,142.180 204.494,141.317 204.581 C 140.895 204.623,139.658 204.738,138.567 204.837 C 137.476 204.937,136.422 205.045,136.225 205.078 C 136.028 205.111,135.428 205.187,134.892 205.246 C 132.965 205.459,127.404 206.194,126.000 206.421 C 119.300 207.505,114.158 208.519,109.167 209.743 C 108.662 209.867,108.041 210.015,107.786 210.072 C 107.212 210.201,107.224 210.223,109.083 212.493 C 109.358 212.829,109.808 213.391,110.083 213.742 C 110.641 214.454,114.641 219.311,114.911 219.604 C 115.006 219.707,115.383 220.153,115.750 220.595 C 116.117 221.037,116.529 221.518,116.667 221.664 C 116.804 221.810,117.564 222.676,118.355 223.590 C 120.409 225.963,120.385 225.935,121.885 227.582 C 126.015 232.117,130.903 237.002,134.314 240.001 C 134.991 240.596,135.628 241.159,135.731 241.252 C 135.833 241.345,136.367 241.795,136.917 242.252 C 137.467 242.709,137.954 243.121,138.000 243.167 C 140.770 245.937,150.267 251.932,155.598 254.277 C 156.048 254.475,156.679 254.752,157.000 254.894 C 159.287 255.904,164.105 257.444,166.750 258.012 C 167.117 258.091,167.604 258.198,167.833 258.250 C 168.063 258.302,168.625 258.418,169.083 258.507 C 169.542 258.596,170.104 258.706,170.333 258.752 C 176.752 260.031,186.635 260.123,198.250 259.011 C 199.258 258.915,200.683 258.790,201.417 258.734 C 202.150 258.679,203.275 258.575,203.917 258.504 C 206.128 258.260,211.977 258.411,212.987 258.738 C 216.781 259.965,216.769 262.725,212.943 268.917 C 212.659 269.375,212.382 269.787,212.326 269.833 C 212.271 269.879,211.898 270.404,211.499 271.000 C 210.841 271.982,209.882 273.288,209.664 273.500 C 209.617 273.546,209.137 274.166,208.597 274.878 C 208.057 275.591,207.458 276.343,207.266 276.551 C 207.074 276.759,206.654 277.263,206.333 277.671 C 203.408 281.396,196.355 288.907,192.978 291.894 C 192.577 292.248,191.875 292.885,191.417 293.310 C 190.745 293.933,189.264 295.203,187.214 296.914 C 186.862 297.208,186.611 297.404,185.500 298.252 C 184.904 298.706,184.211 299.260,183.959 299.482 C 183.708 299.705,183.322 300.006,183.102 300.152 C 182.883 300.297,182.151 300.831,181.477 301.338 C 179.105 303.121,172.669 307.242,169.733 308.859 C 167.271 310.214,166.582 310.573,164.000 311.840 C 162.487 312.583,161.107 313.268,160.933 313.362 C 160.417 313.643,156.837 315.163,155.667 315.599 C 155.071 315.821,154.433 316.068,154.250 316.148 C 154.067 316.228,153.617 316.409,153.250 316.551 C 146.573 319.130,137.960 321.437,130.500 322.645 C 128.356 322.992,128.155 323.020,125.542 323.356 C 124.694 323.464,124.001 323.598,124.003 323.652 C 124.010 323.938,134.633 327.579,138.417 328.593 C 145.464 330.480,153.698 332.162,158.750 332.747 C 159.208 332.801,159.996 332.913,160.500 332.997 C 161.004 333.081,162.429 333.234,163.667 333.338 C 164.904 333.442,166.217 333.556,166.583 333.591 C 173.370 334.248,191.564 333.929,195.257 333.089 C 195.444 333.046,196.295 332.932,197.148 332.835 C 198.818 332.646,199.369 332.570,200.917 332.315 C 201.467 332.225,202.404 332.077,203.000 331.988 C 204.960 331.693,210.671 330.550,212.500 330.087 C 215.224 329.397,217.171 328.872,219.417 328.219 C 220.792 327.820,222.029 327.461,222.167 327.421 C 223.666 326.990,228.506 325.312,230.750 324.446 C 239.766 320.967,246.596 317.628,254.583 312.795 C 256.233 311.796,257.733 310.890,257.917 310.781 C 258.100 310.672,258.287 310.543,258.333 310.494 C 258.379 310.445,258.981 310.056,259.671 309.630 C 260.361 309.204,261.204 308.645,261.545 308.386 C 261.886 308.128,262.544 307.654,263.009 307.333 C 263.473 307.012,264.392 306.356,265.052 305.874 C 265.711 305.393,266.431 304.868,266.653 304.708 C 266.874 304.548,267.150 304.323,267.266 304.208 C 267.381 304.094,267.518 304.000,267.570 304.000 C 267.621 304.000,267.795 303.891,267.956 303.758 C 268.118 303.626,269.246 302.707,270.463 301.717 C 273.985 298.851,274.204 298.668,275.103 297.855 C 275.572 297.431,276.547 296.558,277.270 295.917 C 280.122 293.384,284.215 289.286,287.437 285.740 C 289.846 283.087,290.678 282.120,292.370 280.000 C 293.284 278.854,294.157 277.767,294.309 277.583 C 294.578 277.258,296.491 274.702,298.386 272.134 C 298.907 271.428,299.333 270.806,299.333 270.752 C 299.333 270.697,299.521 270.450,299.750 270.203 C 299.979 269.956,300.167 269.696,300.167 269.625 C 300.167 269.555,300.636 268.804,301.209 267.957 C 302.619 265.874,304.000 263.698,304.000 263.558 C 304.000 263.495,304.106 263.325,304.236 263.180 C 304.367 263.035,305.014 261.979,305.675 260.833 C 309.816 253.657,312.990 246.981,316.254 238.583 C 317.193 236.166,318.682 231.739,319.644 228.500 C 320.982 223.995,322.756 216.481,323.085 213.917 C 323.109 213.733,323.289 212.721,323.486 211.667 C 323.682 210.612,323.955 209.150,324.091 208.417 C 324.228 207.683,324.376 206.896,324.419 206.667 C 324.463 206.438,324.582 205.800,324.683 205.250 C 324.784 204.700,324.903 204.063,324.947 203.833 C 324.991 203.604,325.088 203.079,325.162 202.667 C 325.942 198.318,328.027 188.962,329.025 185.333 C 329.864 182.279,331.066 178.375,331.743 176.500 C 331.958 175.904,332.337 174.854,332.584 174.167 C 335.721 165.443,339.923 159.312,346.350 154.083 C 347.962 152.772,348.323 152.500,348.455 152.500 C 348.537 152.500,348.749 152.366,348.927 152.202 C 349.105 152.038,349.911 151.470,350.719 150.939 C 355.178 148.010,353.452 146.391,343.917 144.558 C 342.144 144.218,340.990 143.998,340.583 143.923 C 340.152 143.843,336.400 143.229,335.000 143.009 C 334.404 142.915,333.129 142.758,332.167 142.659 C 331.204 142.560,330.084 142.441,329.677 142.394 C 325.670 141.935,315.276 141.724,313.250 142.060 C 312.975 142.105,312.112 142.187,311.333 142.242 C 306.229 142.599,301.255 143.630,295.833 145.454 C 294.596 145.871,293.396 146.310,293.167 146.430 C 292.938 146.550,292.033 146.954,291.156 147.328 C 289.473 148.047,285.542 150.137,284.000 151.133 C 283.496 151.459,282.558 152.065,281.917 152.480 C 280.602 153.331,279.032 154.488,276.917 156.166 C 275.205 157.523,271.641 160.961,269.745 163.083 C 268.048 164.983,267.820 165.256,266.621 166.826 C 265.958 167.693,265.248 168.586,265.042 168.809 C 264.835 169.033,264.667 169.274,264.667 169.346 C 264.667 169.417,264.566 169.576,264.444 169.699 C 264.321 169.822,264.040 170.193,263.819 170.524 C 261.042 174.683,259.713 176.739,259.419 177.334 C 259.328 177.517,259.197 177.667,259.127 177.667 C 259.057 177.667,259.000 177.745,259.000 177.840 C 259.000 177.935,258.859 178.217,258.688 178.465 C 258.516 178.713,257.827 179.742,257.156 180.750 C 253.379 186.429,250.807 188.833,248.506 188.833 C 247.204 188.833,244.755 187.723,243.178 186.419 C 242.422 185.794,240.751 184.289,240.576 184.076 C 239.890 183.239,232.196 175.203,230.167 173.203 C 225.593 168.694,220.817 164.173,218.565 162.221 C 218.372 162.054,217.667 161.429,216.999 160.833 C 216.331 160.237,215.587 159.600,215.345 159.417 C 215.103 159.233,214.683 158.884,214.411 158.641 C 213.998 158.272,212.640 157.139,211.078 155.861 C 210.622 155.488,208.799 153.963,208.557 153.752 C 208.328 153.553,206.636 152.231,204.083 150.258 C 203.075 149.479,202.175 148.781,202.083 148.708 C 201.992 148.634,201.654 148.391,201.333 148.168 C 201.012 147.944,200.651 147.665,200.530 147.547 C 200.409 147.430,200.254 147.333,200.186 147.333 C 200.118 147.333,199.917 147.198,199.740 147.033 C 199.404 146.720,197.773 145.543,195.025 143.630 C 194.140 143.015,193.327 142.435,193.218 142.341 C 193.109 142.248,192.397 141.758,191.635 141.251 C 190.873 140.744,190.063 140.202,189.833 140.048 C 186.544 137.830,182.050 135.000,181.817 135.000 C 181.734 135.000,181.667 134.925,181.667 134.833 C 181.667 134.742,181.595 134.667,181.508 134.667 C 181.420 134.667,180.597 134.179,179.679 133.583 C 178.761 132.987,177.966 132.500,177.913 132.500 C 177.860 132.500,177.166 132.106,176.369 131.625 C 174.494 130.492,174.530 130.512,173.301 129.853 C 172.723 129.543,172.063 129.162,171.833 129.007 C 171.419 128.726,170.473 128.200,167.917 126.832 C 167.183 126.439,166.196 125.905,165.723 125.646 C 163.288 124.308,154.232 119.861,150.500 118.171 C 149.629 117.776,148.392 117.212,147.750 116.918 C 147.108 116.624,145.008 115.725,143.083 114.921 C 141.158 114.117,139.358 113.363,139.083 113.247 C 138.617 113.050,134.803 111.536,132.917 110.800 C 132.458 110.621,131.596 110.297,131.000 110.080 C 130.404 109.863,129.617 109.574,129.250 109.437 C 121.321 106.486,107.607 102.174,99.750 100.162 C 93.167 98.476,90.483 97.824,85.333 96.662 C 84.342 96.438,77.609 95.054,76.863 94.921 C 76.618 94.877,76.042 94.764,75.583 94.670 C 73.930 94.330,70.739 93.727,69.750 93.567 C 69.475 93.522,68.688 93.379,68.000 93.248 C 67.313 93.116,65.775 92.858,64.583 92.672 C 63.392 92.487,62.004 92.260,61.500 92.168 C 60.996 92.076,59.496 91.848,58.167 91.661 C 56.837 91.473,55.563 91.286,55.333 91.243 C 55.104 91.201,54.054 91.057,53.000 90.922 C 51.946 90.787,50.521 90.599,49.833 90.503 C 48.596 90.330,46.521 90.084,42.167 89.595 C 40.929 89.457,39.523 89.293,39.042 89.232 C 38.280 89.135,38.167 89.158,38.167 89.409 M310.250 154.662 C 316.246 155.624,318.748 162.752,314.661 167.225 C 309.248 173.147,299.387 167.345,301.993 159.771 C 303.217 156.213,306.655 154.086,310.250 154.662 " stroke="none" fill="hsl(var(--color-on-primary))" fill-rule="evenodd"></path><path id="path1" d="" stroke="none" fill="#78ac04" fill-rule="evenodd"></path><path id="path2" d="" stroke="none" fill="#78ac04" fill-rule="evenodd"></path><path id="path3" d="" stroke="none" fill="#78ac04" fill-rule="evenodd"></path><path id="path4" d="" stroke="none" fill="#78ac04" fill-rule="evenodd"></path></g></svg>